<svg xmlns="http://www.w3.org/2000/svg" viewBox="0 0 512 512" width="512" height="512">
  <defs>
    <linearGradient id="fondo" x1="0" y1="0" x2="1" y2="1">
      <stop offset="0" stop-color="#0b2238"/>
      <stop offset="1" stop-color="#153a59"/>
    </linearGradient>
    <linearGradient id="corazon" x1="0" y1="0" x2="1" y2="1">
      <stop offset="0" stop-color="#28c7e8"/>
      <stop offset="0.5" stop-color="#168bff"/>
      <stop offset="1" stop-color="#ff5f93"/>
    </linearGradient>
  </defs>
  <rect width="512" height="512" fill="url(#fondo)"/>
  <!-- Safe zone: el corazón se mantiene dentro del 80% central para maskable -->
  <path d="M256 392C176 336 120 288 120 226c0-40 32-72 72-72 26 0 49 13 64 34 15-21 38-34 64-34 40 0 72 32 72 72 0 62-56 110-136 166z"
        fill="url(#corazon)"/>
  <path d="M256 392C176 336 120 288 120 226c0-40 32-72 72-72 26 0 49 13 64 34v204z"
        fill="#168bff" opacity="0.35"/>
</svg>
